<svg xmlns="http://www.w3.org/2000/svg" xmlns:xlink="http://www.w3.org/1999/xlink" width="50" height="28"><defs><g id="a"><path d="M7.241 22.96v-7.752L.69 19.07 7.24 22.96zM.057 27.941L6.61 24.08.057 20.19v7.751zM11.35 10.905l3.794 6.72 3.764-6.72h-7.557zM16.207 19.57L20 26.29l3.764-6.72h-7.557zM21.063 26.939h7.586l-3.793-6.72-3.793 6.72zM.057 17.95v.029l6.552-3.89-6.552-3.891v7.751zM.057 7.987l6.552-3.86v-.03L.057.236v7.751zM42.816 17.95v.029l6.552-3.89-6.552-3.891v7.751zM42.816 7.987l6.552-3.86v-.03L42.816.236v7.751zM34.598 17.625l3.793-6.72h-7.586l3.793 6.72zM29.713 11.554l-3.765 6.72h7.558l-3.793-6.72zM29.741 26.29l3.765-6.72h-7.558l3.793 6.72zM43.448 19.07L50 22.96v-7.752l-6.552 3.861zM42.816 27.941l6.552-3.861-6.552-3.89v7.751zM23.793 18.274L20 11.554l-3.764 6.72h7.557z"/></g></defs><use xlink:href="#a" fill="#fff"/></svg>