<svg fill="#FFF" width="203" height="36" xmlns="http://www.w3.org/2000/svg" class="Header__logo-icon--1Amu3" data-tid="be53a399"><path fill-rule="evenodd" clip-rule="evenodd" d="M7.85 20.229H6.408v7.796H0V8h6.408v7.29h1.575L11.508 8h6.515l-4.54 9.372 5.234 10.653h-7.05L7.85 20.229zm21.867.48h-.374l-4.058 3.551v3.765h-6.141v-16.02h6.14v6.034h.535l3.898-3.417v-2.617h6.141v16.02h-6.14v-7.316zM48.3 22.365h-4.165v5.66h-6.14v-16.02h6.14v5.447H48.3v-5.447h6.141v16.02h-6.14v-5.66zM64.587 11.71c1.104 0 2.127.17 3.07.508a6.437 6.437 0 012.444 1.548c.685.694 1.224 1.562 1.615 2.604.392 1.04.588 2.256.588 3.644 0 1.406-.196 2.63-.588 3.671-.391 1.042-.93 1.905-1.615 2.59a6.534 6.534 0 01-2.43 1.535 8.84 8.84 0 01-3.03.508h-.828c-1.14 0-2.19-.17-3.15-.508a6.601 6.601 0 01-2.484-1.535c-.694-.685-1.237-1.548-1.628-2.59-.392-1.041-.588-2.265-.588-3.671 0-1.388.196-2.603.588-3.645.391-1.04.93-1.909 1.615-2.603a6.437 6.437 0 012.443-1.548c.943-.339 1.976-.508 3.097-.508h.881zm-.347 11.481c.677 0 1.224-.271 1.642-.814.419-.543.628-1.33.628-2.363 0-1.032-.21-1.82-.628-2.363-.418-.543-.965-.814-1.642-.814h-.213c-.712 0-1.273.271-1.683.814-.409.543-.614 1.33-.614 2.363 0 1.032.205 1.82.614 2.363.41.543.97.814 1.683.814h.213zM73.56 8h17.088v20.025h-6.409V13.207h-4.272v14.818H73.56V8zm26.966 3.711c1.104 0 2.128.17 3.071.508a6.437 6.437 0 012.443 1.548c.685.694 1.224 1.562 1.615 2.604.392 1.04.588 2.256.588 3.644 0 1.406-.196 2.63-.588 3.671-.391 1.042-.93 1.905-1.615 2.59a6.529 6.529 0 01-2.43 1.535c-.934.339-1.944.508-3.03.508h-.828c-1.139 0-2.19-.17-3.15-.508a6.601 6.601 0 01-2.483-1.535c-.695-.685-1.238-1.548-1.63-2.59-.39-1.041-.587-2.265-.587-3.671 0-1.388.196-2.603.588-3.645.391-1.04.93-1.909 1.615-2.603a6.438 6.438 0 012.443-1.548c.944-.339 1.976-.508 3.097-.508h.881zm-.347 11.481c.677 0 1.224-.271 1.642-.814.419-.543.628-1.33.628-2.363 0-1.032-.209-1.82-.628-2.363-.418-.543-.965-.814-1.642-.814h-.213c-.712 0-1.273.271-1.682.814-.41.543-.614 1.33-.614 2.363 0 1.032.204 1.82.614 2.363.41.543.97.814 1.682.814h.213zm20.159-2.483h-.374l-4.058 3.551v3.765h-6.141v-16.02h6.141v6.034h.534l3.898-3.417v-2.617h6.141v16.02h-6.141v-7.316zm24.11.134c-.053 1.317-.285 2.447-.694 3.39-.41.944-.952 1.723-1.629 2.337a6.28 6.28 0 01-2.376 1.348c-.908.285-1.896.427-2.964.427h-.828c-1.139 0-2.193-.173-3.164-.52a6.764 6.764 0 01-2.509-1.562c-.703-.694-1.251-1.562-1.642-2.603-.392-1.042-.579-2.257-.561-3.645.018-1.388.222-2.603.614-3.645.392-1.04.93-1.909 1.615-2.603a6.585 6.585 0 012.443-1.562c.944-.347 1.976-.52 3.098-.52h.881c1.05 0 2.033.146 2.95.44a6.641 6.641 0 012.403 1.348c.685.606 1.237 1.358 1.655 2.257.419.899.655 1.944.708 3.137H138.6c-.089-.677-.334-1.184-.735-1.522-.4-.338-.894-.507-1.481-.507h-.241c-.694 0-1.246.271-1.655.814-.409.543-.614 1.33-.614 2.363 0 1.032.205 1.82.614 2.363.409.543.961.814 1.655.814h.241c.623 0 1.139-.2 1.548-.6.41-.401.641-.984.694-1.75h5.821zm8.731 1.148h-1.121v6.034h-6.142v-16.02h6.142v5.607h1.148l3.097-5.607h6.381l-4.112 7.45 4.913 8.57h-6.835l-3.471-6.034z" fill="#fff"/><path fill-rule="evenodd" clip-rule="evenodd" d="M186.855 4.135C196.049 3.132 203 7.813 203 14.891c0 7.607-6.397 14.824-18.305 17.109l4.016-20.592 4.264.752-2.658 13.738c4.458-1.812 7.864-5.74 7.92-10.31.083-5.601-5.566-7.803-12.268-6.883l.886-4.57zM180.12 15.95h-4.464l1.535-7.914-4.237-.808-1.701 8.722H167v4.012h3.47l-1.282 6.576 4.264.78 1.427-7.356h4.459l-2.092 10.728 4.293.753 4.015-20.593-4.293-.752-1.141 5.852z" fill="#F60"/></svg>