<svg xmlns="http://www.w3.org/2000/svg" viewBox="0 0 137 50"><path fill="#fff" d="M82.34 42.96l1.95-2.81 8.43 9.42h11.44L89.27 32.92l13.3-19.28H92.21l-9.87 14.31V1.02h-8.51v48.55h8.51zm-32.81 0l1.94-2.81 8.44 9.42h11.45l-14.9-16.65 13.3-19.28H59.4l-9.87 14.31V1.02h-8.51v48.55h8.51zm49.94-11.82c0 10.41 8.4 18.86 18.77 18.86C128.6 50 137 41.55 137 31.14c0-10.42-8.4-18.86-18.76-18.86-10.37 0-18.77 8.44-18.77 18.86zm-80.7-18.86C8.4 12.28 0 20.72 0 31.14 0 41.55 8.4 50 18.77 50c10.36 0 18.76-8.45 18.76-18.86 0-10.42-8.4-18.86-18.76-18.86zM18.61 0c-2.35 0-4.25 1.91-4.25 4.28 0 2.36 1.9 4.28 4.25 4.28s4.25-1.92 4.25-4.28c0-2.37-1.9-4.28-4.25-4.28zm11.28 0c-2.35 0-4.25 1.91-4.25 4.28 0 2.36 1.9 4.28 4.25 4.28s4.26-1.92 4.26-4.28c0-2.37-1.91-4.28-4.26-4.28zM8.36 0C6.01 0 4.1 1.91 4.1 4.28c0 2.36 1.91 4.28 4.26 4.28 2.35 0 4.25-1.92 4.25-4.28 0-2.37-1.9-4.28-4.25-4.28zm.15 31.14c0-5.68 4.6-10.31 10.26-10.31 5.65 0 10.25 4.63 10.25 10.31 0 5.68-4.6 10.3-10.25 10.3-5.66 0-10.26-4.62-10.26-10.3zm99.47 0c0-5.68 4.6-10.31 10.26-10.31 5.65 0 10.25 4.63 10.25 10.31 0 5.68-4.6 10.3-10.25 10.3-5.66 0-10.26-4.62-10.26-10.3z"/></svg>