<svg version="1.1" id="Capa_1" xmlns="http://www.w3.org/2000/svg" x="0" y="0" viewBox="0 0 317.6 317.6" xml:space="preserve"><style>.st0{fill:#fff}</style><g id="_x34_0-Film_Reel_Count"><path class="st0" d="M91.5 177.9H69.7c7.5 35 35.1 62.6 70.1 70.1v-21.8c-23.3-6.7-41.7-25-48.3-48.3zM139.8 91.5V69.7c-35 7.5-62.6 35.1-70.1 70.1h21.8c6.6-23.3 25-41.7 48.3-48.3zM177.9 226.1v21.8c35-7.5 62.6-35.1 70.1-70.1h-21.8c-6.7 23.4-25 41.7-48.3 48.3zM223.2 140.2l21.8.2c-7.2-35.1-34.6-62.9-69.5-70.6l-.2 21.8c23.2 6.7 41.5 25.2 47.9 48.6z"/><path class="st0" d="M303.3 18.8H14.4C6.4 18.8 0 25.3 0 33.2v251.3c0 7.9 6.4 14.4 14.4 14.4h288.9c7.9 0 14.4-6.4 14.4-14.4V33.2c-.1-7.9-6.5-14.4-14.4-14.4zM43.7 251.2H16.9v-34.3h26.7c.1 0 .1 34.3.1 34.3zm0-75.2H16.9v-34.3h26.7c.1 0 .1 34.3.1 34.3zm0-75.3H16.9V66.5h26.7c.1 0 .1 34.2.1 34.2zm214.2 171.9H60.3V163.3h40.3v-13.2H60.3L61 40.8h196.9v231.8zm-12.4-124.5v8.8-85.6 76.8zm55.2 103.1H274v-34.3h26.7v34.3zm0-75.2H274v-34.3h26.7V176zm0-75.3H274V66.5h26.7v34.2z"/></g><path class="st0" d="M266.4 164.6h-52.8v-16.3l52.8.1zM149.4 40.8h16.2V88h-16.2zM149.5 225.3h16.2v49.2h-16.2z"/><text transform="translate(112.541 209.055)" class="st0" font-size="133.996" font-family="Arial-Black">3</text></svg>