<svg height="512" width="512" xmlns="http://www.w3.org/2000/svg"><path d="M454.22 313.78C454.22 423.25 365.47 512 256 512S57.78 423.25 57.78 313.78c0-37.65 10.49-72.86 28.74-102.83 0 0 25.24 53.86 68.6 36.45 17.05-6.84 36.46-26.05 18.16-57.74-19.74-34.17-9.27-82.43 34.24-100.9C256 68.18 256 0 256 0c4.88 3.13 76.59 50.67 50.28 111.89-15.72 36.58-17.6 80.91 15.09 90.71 39.12 11.74 59.77-42.54 59.77-42.54 44.59 36.34 73.08 91.7 73.08 153.72z" fill="#fcd703"/><path d="M454.22 313.78C454.22 423.25 365.47 512 256 512V0c4.88 3.13 76.59 50.67 50.28 111.89-15.72 36.58-17.6 80.91 15.09 90.71 39.12 11.74 59.77-42.54 59.77-42.54 44.59 36.34 73.08 91.7 73.08 153.72z" fill="#fe9100"/><path d="M351.2 416.82c0 59.92-50.51 95.18-95.2 95.18-52.56 0-95.17-42.61-95.19-95.16v-.04c-.24-19.81 4.04-43.24 15.97-70.43l38.91 11.38c0-39.56 21.06-66.17 40.31-82.23 16.18-13.48 31.1-19.52 31.1-19.52 4.88 58.84 39.4 93.06 51.47 114.71 10.45 18.76 12.63 30.39 12.63 46.11z" fill="#ff7b49"/><path d="M351.2 416.82c0 59.92-50.51 95.18-95.2 95.18V275.52c16.18-13.48 31.1-19.52 31.1-19.52 4.88 58.84 39.4 93.06 51.47 114.71 10.45 18.76 12.63 30.39 12.63 46.11z" fill="#fd435b"/></svg>