<svg xmlns="http://www.w3.org/2000/svg" viewBox="0 0 25 25"><path stroke="#0e1d25" stroke-width="0.5" d="M12.48 25a10.09 10.09 0 01-1.9-.18A9.46 9.46 0 013 15.7c0-3.32 1.65-5.31 3.12-7.07s2.62-3.15 2-5.45a.5.5 0 01.76-.54 10.3 10.3 0 013.73 4.56s0 .06.11.07a.16.16 0 00.15-.12 9 9 0 00-.81-6.39.5.5 0 01.06-.54.5.5 0 01.52-.16 12.07 12.07 0 014.71 3C19.46 5.1 22 9 22 15.67a9.25 9.25 0 01-3.39 7.15A9.58 9.58 0 0112.48 25zm-.31-8.75c-.78.56-2.17 2-2.17 5.22a2.5 2.5 0 005 0 3.51 3.51 0 00-1.09-2.2 8.27 8.27 0 01-1.74-3.02zm-2.85-12c.05 2.07-1.15 3.52-2.42 5C5.47 11 4 12.74 4 15.7a8.47 8.47 0 005.68 7.85A3.48 3.48 0 019 21.47c0-5.08 3.18-6.4 3.31-6.46a.51.51 0 01.43 0 .5.5 0 01.25.35 6.8 6.8 0 001.69 3.26A4.36 4.36 0 0116 21.47a3.47 3.47 0 01-.67 2.05A8.46 8.46 0 0018 22.05a8.26 8.26 0 003-6.38c0-9.57-5.22-13.12-7.55-14.23a9.73 9.73 0 01.4 6 1.16 1.16 0 01-1.08.86 1.08 1.08 0 01-1.1-.73 8.59 8.59 0 00-2.35-3.34z" fill="#0e1d25"/></svg>