<svg xmlns="http://www.w3.org/2000/svg" viewBox="0 0 469.333 469.333"><path fill="#fff" d="M394.667 0h-128A10.66 10.66 0 00256 10.667v448a10.66 10.66 0 0010.667 10.667h128c41.167 0 74.667-33.5 74.667-74.667v-320C469.333 33.5 435.833 0 394.667 0zM448 394.667C448 424.073 424.083 448 394.667 448H277.333V21.333h117.333C424.083 21.333 448 45.26 448 74.667v320zM202.667 0h-128C33.5 0 0 33.5 0 74.667v320c0 41.167 33.5 74.667 74.667 74.667h128a10.66 10.66 0 0010.667-10.667v-448A10.662 10.662 0 00202.667 0zM192 448H74.667c-29.417 0-53.333-23.927-53.333-53.333v-320c0-29.406 23.917-53.333 53.333-53.333H192V448z"/><path fill="#fff" d="M53.333 138.667c0 29.406 23.917 53.333 53.333 53.333S160 168.073 160 138.667s-23.917-53.333-53.333-53.333-53.334 23.926-53.334 53.333zm53.334-32c17.646 0 32 14.354 32 32s-14.354 32-32 32-32-14.354-32-32 14.354-32 32-32zM362.667 213.333c-29.417 0-53.333 23.927-53.333 53.333S333.25 320 362.667 320C392.083 320 416 296.073 416 266.667s-23.917-53.334-53.333-53.334zm0 85.334c-17.646 0-32-14.354-32-32s14.354-32 32-32 32 14.354 32 32-14.354 32-32 32z"/></svg>