<svg xmlns="http://www.w3.org/2000/svg" viewBox="0 0 469.333 469.333"><path fill="#fff" d="M202.667 0h-128C33.5 0 0 33.5 0 74.667v320c0 41.167 33.5 74.667 74.667 74.667h128a10.66 10.66 0 0010.667-10.667v-448A10.662 10.662 0 00202.667 0zm-96 192c-29.417 0-53.333-23.927-53.333-53.333s23.917-53.333 53.333-53.333S160 109.26 160 138.667 136.083 192 106.667 192zM394.667 0h-128A10.66 10.66 0 00256 10.667v448a10.66 10.66 0 0010.667 10.667h128c41.167 0 74.667-33.5 74.667-74.667v-320C469.333 33.5 435.833 0 394.667 0zm-32 320c-29.417 0-53.333-23.927-53.333-53.333s23.917-53.333 53.333-53.333c29.417 0 53.333 23.927 53.333 53.333S392.083 320 362.667 320z"/></svg>