<svg width="124" height="153" xmlns="http://www.w3.org/2000/svg"><path d="M90.089 104.385c-1.544 1.92-5.285 3.306-5.285 3.306l-27.827 9.997v-7.376l20.48-7.294c2.319-.855 2.67-2.026.797-2.64-1.904-.618-5.303-.44-7.644.397l-13.633 4.81v-7.669l.782-.26s3.946-1.399 9.494-2c5.538-.608 12.33.077 17.67 2.092 6.015 1.91 6.687 4.695 5.166 6.637zM77.25 121.716h-.668v-4.248l-1.405 4.248H74.5l-1.405-4.248v4.248h-.675v-5.228h.938l1.479 4.452 1.485-4.452h.928v5.228zm-5.483-4.634h-1.676v4.634h-.673v-4.634h-1.691v-.594h4.04v.594zm-17.216-45.76v47.222l-12.75-4.043V58.183c5.426 1.001 13.308 3.394 17.562 4.813 10.778 3.708 14.442 8.323 14.442 18.682 0 10.132-6.25 13.98-14.184 10.136V72.955c0-2.199-.408-4.25-2.486-4.829-1.592-.506-2.584.97-2.584 3.196zM53.414 5.393c1.023-.106 2.029.051 3.029.454-5.752 7.84-7.407 21.666-7.878 29.396-2.366.005-4.643.013-6.83.022.852-18.417 4.997-29.19 11.679-29.872zm-14.08 94.24l-13.133 4.706c-2.326.828-2.673 2.004-.798 2.618 1.904.638 5.29.461 7.618-.395l6.314-2.278v6.618c-.41.074-.86.141-1.273.211-6.295 1.043-13.004.615-19.623-1.578-6.17-1.72-7.198-5.35-4.384-7.442 2.594-1.923 7.015-3.36 7.015-3.36l18.265-6.513v7.413zm20.793-91.13c5.486 5.688 9.208 17.431 10.8 26.736-4.646-.002-9.71-.004-15.183-.004l-2.605.001c.529-8.518 2.35-20.605 6.988-26.733zm6.739-3.889c2.137-.01 4.116 1.008 6.04 3.111 5.819 6.346 8.828 19.91 9.949 27.524l-7.278-.007C73.94 25.104 69.86 12.172 63.564 5.45a7.16 7.16 0 013.302-.835zm51.309 33.491c-.03-.575-.558-1.026-1.192-1.018l-12.183-1.75a1.359 1.359 0 00-.347-.05c-2.446-.007-8.232-.02-16.952-.032-1.035-7.933-4.046-21.162-9.732-28.845C74.606 2.136 70.929-.018 66.843 0c-2.732.017-5.048.9-7.03 2.376C57.619 1.09 55.323.562 52.952.802 41.478 1.972 37.889 18.85 37.145 35.29c-16.24.096-26.714.295-30.207.37-.733.015-1.324.532-1.364 1.196C5.3 41.47 4.233 59.56 2.724 87.362 1.133 116.765.229 132.804.003 137.048c-.032.608.442 1.135 1.106 1.236l48.498 7.351 47.938 7.265a1.55 1.55 0 001.09-.244v.01l23.685-15.145c.628-.426.983-1.107.946-1.817l-5.09-97.599z" fill="#000" fill-rule="evenodd"/></svg>