<svg xmlns="http://www.w3.org/2000/svg" viewBox="0 0 512 512"><path fill="#fff" d="M342.656 15.42c-53.952-20.512-119.392-20.512-173.312 0-6.144 2.336-10.272 8.256-10.304 14.848a16.085 16.085 0 0010.144 15.008c26.976 10.592 53.12 24.64 77.664 41.728a15.975 15.975 0 0018.304 0c24.576-17.12 50.72-31.168 77.664-41.76 6.144-2.4 10.176-8.352 10.144-14.976a15.937 15.937 0 00-10.304-14.848zM62.343 422.783l-.007.029.013-.022-.006-.007zM214.112 103.292C186.816 81.596 157.856 61.884 128 44.668c-5.344-3.072-11.968-2.784-17.088.672C41.472 93.212 0 171.932 0 255.964c0 61.395 22.071 120.583 62.343 166.819 17.965-76.045 96.192-241.45 152.793-295.395 3.36-3.2 5.152-7.68 4.96-12.288a15.95 15.95 0 00-5.984-11.808z"/><path fill="#fff" d="M401.056 45.34c-5.088-3.488-11.648-3.776-17.056-.672a701.737 701.737 0 00-86.112 58.624 15.928 15.928 0 00-6.016 11.808c-.224 4.64 1.6 9.12 4.928 12.288 56.576 53.92 135.04 219.168 152.992 295.232-39.04-65.984-125.984-221.28-182.912-274.368-6.112-5.728-15.68-5.728-21.824 0C188.07 201.366 101.395 356.761 62.349 422.79l.019.022c48.16 56.64 118.72 89.152 193.632 89.152s145.472-32.512 193.824-89.344C489.92 376.604 512 317.404 512 255.964c0-84.032-41.472-162.752-110.944-210.624z"/></svg>